<svg xmlns="http://www.w3.org/2000/svg" viewBox="0 0 64 64">
  <defs>
    <linearGradient id="warriorSteel" x1="0" y1="0" x2="0" y2="1">
      <stop offset="0%" stop-color="#f1f3f5"/>
      <stop offset="55%" stop-color="#adb5bd"/>
      <stop offset="100%" stop-color="#6c757d"/>
    </linearGradient>
  </defs>
  <path d="M17 29 C9 27 6 17 7 11 C16 12 21 20 22 27 Z" fill="url(#warriorSteel)" stroke="#343a40" stroke-width="2" stroke-linejoin="round"/>
  <path d="M47 29 C55 27 58 17 57 11 C48 12 43 20 42 27 Z" fill="url(#warriorSteel)" stroke="#343a40" stroke-width="2" stroke-linejoin="round"/>
  <path d="M16 44 V28 C16 14 22 10 32 10 C42 10 48 14 48 28 V44 C48 46.5 16 46.5 16 44 Z" fill="url(#warriorSteel)" stroke="#343a40" stroke-width="2"/>
  <path d="M17 35 C24.5 37 39.5 37 47 35" fill="none" stroke="#d7a34a" stroke-width="2.5" stroke-linecap="round"/>
  <path d="M29 12.5 L32 9.5 L35 12.5 V38 L32 43 L29 38 Z" fill="#868e96" stroke="#343a40" stroke-width="2" stroke-linejoin="round"/>
</svg>
