<svg xmlns="http://www.w3.org/2000/svg" viewBox="0 0 64 64">
  <path d="M16 42 V32 C16 16 24 12 32 12 C40 12 48 16 48 32 V42 C48 44 16 44 16 42 Z" fill="#868e96" stroke="#343a40" stroke-width="2"/>
  <path d="M16 32 C6 32 2 18 2 18 C10 18 16 26 16 26" fill="#f8f9fa" stroke="#343a40" stroke-width="2" stroke-linejoin="round"/>
  <path d="M48 32 C58 32 62 18 62 18 C54 18 48 26 48 26" fill="#f8f9fa" stroke="#343a40" stroke-width="2" stroke-linejoin="round"/>
  <path d="M28 12 L32 8 L36 12 V38 L32 44 L28 38 Z" fill="#adb5bd" stroke="#343a40" stroke-width="2"/>
</svg>
